<?xml version="1.0" encoding="UTF-8" standalone="no"?>
<!-- Created with Inkscape (http://www.inkscape.org/) -->

<svg
   width="800"
   height="200"
   viewBox="0 0 211.66665 52.916666"
   version="1.1"
   id="svg1"
   xml:space="preserve"
   inkscape:export-filename="bitmap.svg"
   inkscape:export-xdpi="96"
   inkscape:export-ydpi="96"
   inkscape:version="1.4.2 (ebf0e940d0, 2025-05-08)"
   sodipodi:docname="onda-sonora.svg"
   xmlns:inkscape="http://www.inkscape.org/namespaces/inkscape"
   xmlns:sodipodi="http://sodipodi.sourceforge.net/DTD/sodipodi-0.dtd"
   xmlns="http://www.w3.org/2000/svg"
   xmlns:svg="http://www.w3.org/2000/svg"><sodipodi:namedview
     id="namedview1"
     pagecolor="#ffffff"
     bordercolor="#000000"
     borderopacity="0.25"
     inkscape:showpageshadow="2"
     inkscape:pageopacity="0.0"
     inkscape:pagecheckerboard="0"
     inkscape:deskcolor="#d1d1d1"
     inkscape:document-units="mm"
     inkscape:zoom="1"
     inkscape:cx="164"
     inkscape:cy="160"
     inkscape:window-width="1920"
     inkscape:window-height="974"
     inkscape:window-x="1920"
     inkscape:window-y="30"
     inkscape:window-maximized="1"
     inkscape:current-layer="layer2" /><defs
     id="defs1"><inkscape:path-effect
       effect="bspline"
       id="path-effect14"
       is_visible="true"
       lpeversion="1.3"
       weight="33.333333"
       steps="2"
       helper_size="0"
       apply_no_weight="true"
       apply_with_weight="true"
       only_selected="false"
       uniform="false" /></defs><g
     inkscape:groupmode="layer"
     id="layer2"
     inkscape:label="Base"
     transform="translate(-8.0457863,-93.345897)"
     sodipodi:insensitive="true"><rect
       style="fill:#ffffff;fill-opacity:1;stroke:#999999;stroke-width:0.215736;stroke-linecap:round;stroke-linejoin:miter;stroke-dasharray:none;stroke-opacity:1"
       id="rect1"
       width="211.45256"
       height="52.698261"
       x="8.1543407"
       y="93.455742"
       inkscape:label="Base" /><path
       style="fill:#4d4d4d;stroke:#999999;stroke-width:0.104254;stroke-linecap:round;stroke-linejoin:round;stroke-dasharray:3.12764;stroke-dashoffset:0;stroke-opacity:1"
       d="M 219.58829,118.20753 H 8.1698757"
       id="path2"
       inkscape:label="Linha central" /><path
       style="fill:none;stroke:#5ad8d5;stroke-width:0.2;stroke-linecap:round;stroke-linejoin:round;stroke-dasharray:none;stroke-dashoffset:0;stroke-opacity:1"
       d="m 8.0448128,118.14649 c 0,0 0,0 0,0 2.1525542,-8.1944 4.3051062,-16.3888 6.4605452,-16.34975 2.15544,0.0391 4.31368,8.31126 6.371157,16.54008 2.057478,8.22883 4.014073,16.41379 5.985929,16.35101 1.971855,-0.0628 3.958853,-8.37314 6.024645,-16.56614 2.065793,-8.19301 4.210254,-16.26817 6.249771,-16.23502 2.039516,0.0332 3.973964,8.17446 5.899438,16.35967 1.925474,8.18522 3.841855,16.41384 5.868051,16.38882 2.026196,-0.025 4.162083,-8.30354 6.169429,-16.44188 2.007347,-8.13835 3.886037,-16.13605 5.927852,-16.07795 2.041815,0.0581 4.246633,8.17182 6.319222,16.30784 2.072589,8.13602 4.012827,16.29384 6.019272,16.24966 2.006445,-0.0442 4.078972,-8.29019 6.063367,-16.53645 1.984394,-8.24627 3.880535,-16.49228 5.842882,-16.47015 1.962347,0.0221 3.990778,8.31224 5.975173,16.6026 1.984394,8.29036 3.924633,16.58047 5.931078,16.51424 2.006446,-0.0662 4.078976,-8.48863 6.173616,-16.80103 2.09464,-8.31241 4.21126,-16.51433 6.21771,-16.47015 2.00644,0.0442 3.90258,8.33429 5.95312,16.5585 2.05054,8.22422 4.25536,16.38204 6.3059,16.42605 2.05054,0.044 3.94668,-8.02561 5.88698,-16.24983 1.9403,-8.22421 3.92463,-16.60251 5.95313,-16.62447 2.02849,-0.022 4.10101,8.31223 6.1736,16.58055 2.07259,8.26831 4.14512,16.47022 6.15156,16.3158 2.00645,-0.15443 3.94669,-8.66502 5.97519,-16.93333 2.02849,-8.26831 4.14511,-16.29384 6.19565,-16.13942 2.05054,0.15443 4.03488,8.48863 5.93107,16.75695 1.8962,8.26831 3.70415,16.47022 5.84289,16.3158 2.13874,-0.15443 4.60814,-8.66502 6.76892,-16.88923 2.16078,-8.22421 4.01283,-16.16155 5.86493,-15.98508 1.8521,0.17647 3.70415,8.46658 5.5783,16.75694 1.87415,8.29036 3.77029,16.58047 5.82083,16.49219 2.05055,-0.0883 4.25537,-8.55477 6.46023,-17.02144"
       id="path14"
       inkscape:path-effect="#path-effect14"
       inkscape:original-d="m 8.0448128,118.14649 c 0,0 0,0 0,0 0,0 4.3051072,-16.3888 6.4576612,-24.58321 2.158324,8.27252 4.316562,16.54472 6.474843,24.81707 1.956674,8.1853 3.913271,16.37026 5.869906,24.55539 1.987076,-8.31069 3.974073,-16.62105 5.96111,-24.93157 2.144548,-8.07549 4.289009,-16.15065 6.433516,-24.225977 1.934524,8.141637 3.868975,16.282937 5.803463,24.424407 1.916459,8.22896 3.832841,16.45758 5.749261,24.68637 2.13597,-8.27884 4.271859,-16.55735 6.407787,-24.83602 1.878764,-7.99802 3.757454,-15.99572 5.636181,-23.993576 2.204905,8.114046 4.409723,16.227776 6.614583,24.341666 1.940317,8.15815 3.880557,16.31597 5.820833,24.47396 2.072611,-8.24635 4.14514,-16.49236 6.217709,-24.73854 1.896218,-8.24635 3.79236,-16.49236 5.688541,-24.738545 2.028513,8.290445 4.056944,16.580555 6.085417,24.870835 1.940316,8.29044 3.880556,16.58055 5.820833,24.87083 2.072613,-8.42274 4.145143,-16.84514 6.217713,-25.26771 2.1167,-8.20224 4.23333,-16.40416 6.35,-24.606246 1.89621,8.290446 3.79236,16.580556 5.68854,24.870836 2.2049,8.15815 4.40972,16.31597 6.61458,24.47395 1.89622,-8.06995 3.79236,-16.13958 5.68854,-24.20937 1.98442,-8.37864 3.96875,-16.75694 5.95313,-25.135416 2.07261,8.334546 4.14513,16.668746 6.2177,25.003126 2.07262,8.20225 4.14514,16.40416 6.21771,24.60625 1.94032,-8.51094 3.88056,-17.02153 5.82084,-25.53229 2.11671,-8.02586 4.23333,-16.05139 6.35,-24.077086 1.98441,8.334546 3.96875,16.668746 5.95312,25.003126 1.80802,8.20225 3.61597,16.40416 5.42396,24.60625 2.46949,-8.51094 4.93889,-17.02153 7.40833,-25.53229 1.85212,-7.93766 3.70417,-15.875 5.55625,-23.812503 1.85212,8.290443 3.70417,16.580553 5.55625,24.870833 1.89622,8.29044 3.79236,16.58055 5.68854,24.87083 2.20491,-8.46683 4.40972,-16.93333 6.61459,-25.4"
       inkscape:label="Ondas"
       transform="matrix(1.0851349,0.00399469,0,0.99983251,-0.31335283,-0.4005494)" /></g></svg>
